<svg width="150" height="150" viewBox="0 0 150 150" fill="none" xmlns="http://www.w3.org/2000/svg">
<rect width="33.871" height="33.871" rx="16.9355" fill="white"/>
<rect x="38.7097" width="33.871" height="33.871" rx="16.9355" fill="white"/>
<rect x="77.4194" width="33.871" height="33.871" rx="16.9355" fill="white"/>
<rect x="116.129" width="33.871" height="33.871" rx="16.9355" fill="white"/>
<rect y="38.7097" width="33.871" height="33.871" rx="16.9355" fill="white"/>
<rect y="77.4194" width="33.871" height="33.871" rx="16.9355" fill="white"/>
<rect y="116.129" width="33.871" height="33.871" rx="16.9355" fill="white"/>
<rect x="38.7097" y="38.7097" width="33.871" height="33.871" rx="16.9355" fill="white"/>
<rect x="38.7097" y="77.4194" width="33.871" height="33.871" rx="16.9355" fill="white"/>
<rect x="38.7097" y="116.129" width="33.871" height="33.871" rx="16.9355" fill="white"/>
<rect x="77.4194" y="38.7097" width="33.871" height="33.871" rx="16.9355" fill="white"/>
<rect x="77.4194" y="77.4194" width="33.871" height="33.871" rx="16.9355" fill="white"/>
<rect x="116.129" y="77.4194" width="33.871" height="33.871" rx="16.9355" fill="white"/>
<rect x="116.129" y="38.7097" width="33.871" height="33.871" rx="16.9355" fill="white"/>
<rect x="77.4194" y="116.129" width="33.871" height="33.871" rx="16.9355" fill="white"/>
<rect x="116.129" y="116.129" width="33.871" height="33.871" rx="16.9355" fill="white"/>
</svg>
