<svg width="177" height="177" viewBox="0 0 177 177" fill="none" xmlns="http://www.w3.org/2000/svg">
<rect width="177" height="177" rx="7" fill="white"/>
<rect x="11" y="11" width="31.3924" height="31.3924" rx="15.6962" fill="#0D0D0D"/>
<rect x="52.2026" y="11" width="31.3924" height="31.3924" rx="15.6962" fill="#0D0D0D"/>
<rect x="93.405" y="11" width="31.3924" height="31.3924" rx="15.6962" fill="#0D0D0D"/>
<rect x="134.608" y="11" width="31.3924" height="31.3924" rx="15.6962" fill="#0D0D0D"/>
<rect x="11" y="52.2025" width="31.3924" height="31.3924" rx="15.6962" fill="#0D0D0D"/>
<rect x="11" y="93.405" width="31.3924" height="31.3924" rx="15.6962" fill="#0D0D0D"/>
<rect x="11" y="134.608" width="31.3924" height="31.3924" rx="15.6962" fill="#0D0D0D"/>
<rect x="52.2026" y="52.2025" width="31.3924" height="31.3924" rx="15.6962" fill="#0D0D0D"/>
<rect x="52.2026" y="93.405" width="31.3924" height="31.3924" rx="15.6962" fill="#0D0D0D"/>
<rect x="52.2026" y="134.608" width="31.3924" height="31.3924" rx="15.6962" fill="#0D0D0D"/>
<rect x="93.405" y="52.2025" width="31.3924" height="31.3924" rx="15.6962" fill="#0D0D0D"/>
<rect x="93.405" y="93.405" width="31.3924" height="31.3924" rx="15.6962" fill="#0D0D0D"/>
<rect x="134.608" y="93.405" width="31.3924" height="31.3924" rx="15.6962" fill="#0D0D0D"/>
<rect x="134.608" y="52.2025" width="31.3924" height="31.3924" rx="15.6962" fill="#0D0D0D"/>
<rect x="93.405" y="134.608" width="31.3924" height="31.3924" rx="15.6962" fill="#0D0D0D"/>
<rect x="134.608" y="134.608" width="31.3924" height="31.3924" rx="15.6962" fill="#0D0D0D"/>
</svg>
